Coordinates
version=1
nRows=43
nColumns=12
inDegrees=yes

Units are S.I. units (second, meters, Newtons, ...)
Angles are in degrees

endheader
time	SC_y	SC_z	SC_x	AC_y	AC_z	AC_x	GH_y	GH_z	GH_yy	EL_x	PS_y
       0.0              -30.53          37.94          32.76          36.16          -1.16         -10.04         -60.61          48.34          73.48          37.28          148.2
   0.02389              -30.54          37.94          32.76          36.16         -1.161         -10.04         -60.59          48.35          73.44          37.28          148.2
   0.04779              -30.54          37.94          32.76          36.16         -1.162         -10.04         -60.57          48.35          73.41          37.28          148.2
   0.07168              -30.54          37.93          32.75          36.16         -1.163         -10.04         -60.55          48.35          73.37          37.29          148.2
   0.09558              -30.55          37.93          32.75          36.17         -1.164         -10.04         -60.53          48.35          73.32          37.29          148.2
    0.1195              -30.55          37.92          32.75          36.17         -1.165         -10.04         -60.51          48.35          73.28          37.29          148.2
    0.1434              -30.56          37.92          32.74          36.17         -1.166         -10.04         -60.48          48.36          73.23           37.3          148.2
    0.1673              -30.56          37.91          32.74          36.17         -1.168         -10.03         -60.46          48.36          73.18           37.3          148.2
    0.1912              -30.57          37.91          32.73          36.17         -1.169         -10.03         -60.43          48.36          73.12           37.3          148.2
     0.215              -30.58           37.9          32.73          36.17         -1.171         -10.03          -60.4          48.37          73.06          37.31          148.2
    0.2389              -30.58          37.89          32.72          36.17         -1.173         -10.03         -60.37          48.37           73.0          37.31          148.2
    0.2628              -30.59          37.89          32.71          36.17         -1.174         -10.02         -60.33          48.37          72.93          37.32          148.2
    0.2867               -30.6          37.88          32.71          36.18         -1.176         -10.02         -60.29          48.38          72.86          37.32          148.2
    0.3106              -30.61          37.87           32.7          36.18         -1.179         -10.02         -60.25          48.38          72.78          37.33          148.2
    0.3345              -30.62          37.86          32.69          36.18         -1.181         -10.01         -60.21          48.38          72.69          37.33          148.2
    0.3584              -30.63          37.85          32.68          36.18         -1.184         -10.01         -60.16          48.39           72.6          37.34          148.2
    0.3823              -30.64          37.84          32.67          36.18         -1.186         -10.01         -60.11          48.39          72.49          37.35          148.2
    0.4062              -30.65          37.83          32.66          36.19         -1.189          -10.0         -60.06           48.4          72.38          37.36          148.2
    0.4301              -30.66          37.82          32.65          36.19         -1.193         -9.996         -59.99          48.41          72.26          37.36          148.1
     0.454              -30.68           37.8          32.64          36.19         -1.196         -9.991         -59.93          48.41          72.13          37.37          148.1
    0.4779              -30.69          37.79          32.63           36.2           -1.2         -9.985         -59.85          48.42          71.98          37.38          148.1
    0.5018              -30.71          37.77          32.61           36.2         -1.205         -9.979         -59.77          48.43          71.82           37.4          148.1
    0.5257              -30.73          37.75           32.6           36.2         -1.209         -9.972         -59.68          48.44          71.64          37.41          148.1
    0.5496              -30.75          37.73          32.58          36.21         -1.215         -9.964         -59.58          48.45          71.45          37.42          148.1
    0.5735              -30.78          37.71          32.56          36.21         -1.221         -9.955         -59.47          48.46          71.23          37.44          148.1
    0.5973               -30.8          37.68          32.54          36.22         -1.227         -9.946         -59.35          48.47          70.98          37.45          148.1
    0.6212              -30.83          37.65          32.51          36.23         -1.235         -9.935         -59.21          48.49          70.71          37.47          148.1
    0.6451              -30.86          37.62          32.49          36.23         -1.243         -9.923         -59.06           48.5           70.4           37.5          148.1
     0.669               -30.9          37.59          32.46          36.24         -1.253         -9.909         -58.88          48.52          70.05          37.52          148.1
    0.6929              -30.95          37.55          32.42          36.25         -1.263         -9.893         -58.68          48.54          69.66          37.55          148.1
    0.7168              -30.99           37.5          32.38          36.26         -1.275         -9.875         -58.46          48.56          69.21          37.58          148.0
    0.7407              -31.05          37.44          32.33          36.27          -1.29         -9.855          -58.2          48.59          68.69          37.62          148.0
    0.7646              -31.11          37.38          32.28          36.29         -1.306         -9.831          -57.9          48.62           68.1          37.66          148.0
    0.7885              -31.19          37.31          32.22           36.3         -1.325         -9.803         -57.55          48.65           67.4          37.71          148.0
    0.8124              -31.28          37.23          32.14          36.32         -1.347         -9.771         -57.14           48.7          66.59          37.76          148.0
    0.8363              -31.38          37.13          32.06          36.35         -1.373         -9.733         -56.66          48.74          65.63          37.83          147.9
    0.8602               -31.5          37.01          31.95          36.37         -1.403         -9.688         -56.08           48.8           64.5          37.91          147.9
    0.8841              -31.65          36.87          31.83           36.4          -1.44         -9.634          -55.4          48.87          63.13          38.01          147.8
     0.908              -31.83          36.69          31.68          36.44         -1.485         -9.568         -54.57          48.96          61.49          38.12          147.8
    0.9319              -32.05          36.48           31.5          36.49          -1.54         -9.488         -53.55          49.06          59.47          38.26          147.7
    0.9558              -32.32          36.23          31.28          36.55         -1.607         -9.389          -52.3          49.19          56.99          38.44          147.6
    0.9796              -32.65           35.9           31.0          36.62         -1.691         -9.266         -50.74          49.34          53.89          38.66          147.5
     1.004              -33.08           35.5          30.65          36.71         -1.797         -9.111         -48.77          49.54          49.98          38.93          147.4
